<?xml version="1.0" encoding="utf-8"?>
<!-- Generator: Adobe Illustrator 26.0.3, SVG Export Plug-In . SVG Version: 6.00 Build 0)  -->
<svg width="25px" height="25px" version="1.0" id="Layer_1" xmlns="http://www.w3.org/2000/svg" xmlns:xlink="http://www.w3.org/1999/xlink" x="0px" y="0px"
	 viewBox="0 0 870 836.6" xml:space="preserve">
<style type="text/css">
	.st0{fill:#00008F;}
	.st1{fill:#FF1721;}
	.st2{fill:#FFFFFF;}
</style>
<rect id="base" x="205.9" y="86.8" class="st0" width="663" height="663"/>
<polygon id="switch" class="st1" points="616.7,414.2 868.9,86.8 831.6,86.8 578.7,414.2 "/>
<path id="axa" class="st2" d="M712.5,560.3c11.5,32.3,35.4,116.5,44.8,123.2h-62.5c-0.2-7.4-1.2-14.8-2.9-22.1
	c-2.7-9.6-25.3-82.4-25.3-82.4h-99.3l-15.6,22.1c0,0,18.8,58.7,19.9,61.6c2,5.2,11,20.7,11,20.7h-59.9c0,0-1.6-9-2.1-12.7
	c-0.5-3-5.7-19.5-5.7-19.5s-13.6,14.9-17.3,21.8s-5.4,10.5-5.4,10.5h-46.9c0,0-1.6-9-2.1-12.7c-0.5-3-6.2-20.8-6.2-20.8
	s-13.1,15.9-16.9,22.8c-3.7,6.9-5.3,10.7-5.3,10.7h-46.4c0,0,13.1-12.5,17.7-17.8c7.7-9.1,36.5-46.7,36.5-46.7L411,579h-98.5
	c0,0-56.2,73.8-58.4,76.1c-2.2,2.3-18.6,25.8-19,28.3h-29.2v-18.6c0.4-0.4,0.7-0.8,1.2-1.1c0.9-0.7,42.6-52.4,80.9-103.5
	c34.4-44.5,66.7-87.8,69.6-91.9c6.9-10,16.8-31.5,16.8-31.5h51c0,0,1.6,19.8,3.1,24.6c1.3,4.2,32.4,106.1,33.1,107.2l17.2-22
	l-29.3-90.3c0,0-6.9-17-9.1-19.5h59.5c-0.2,5.5,0.4,10.9,1.9,16.2c2.4,7.5,15.2,53.5,15.2,53.5s40.6-50.9,43-54.5
	c2.9-4.6,4.6-9.8,5-15.1h49.6c0,0-9.1,6.6-25,26.8L531.6,537c0,0,4.6,15.6,6.8,23.3c0.6,2.2,1,3.7,1,3.9c0,0.2,1.2-1.4,3.1-3.9
	c13.5-17.1,75-97.7,78.7-104.6c3-5.6,7.4-11.9,10-18.8h48.4c0,0,1.1,14.4,2.6,18.4L712.5,560.3z M638.9,484
	c-7.1,15.3-48.9,66.2-48.9,66.2h66.2c0,0-12.8-39.5-15.1-48.4c-1.1-5.7-1.6-11.5-1.3-17.3C639.8,483.7,639.6,482.3,638.9,484
	L638.9,484z M384.5,484c-7.1,15.3-48.9,66.2-48.9,66.2h66.2c0,0-12.8-39.5-15.1-48.4c-1.1-5.7-1.6-11.5-1.3-17.3
	C385.4,483.7,385.2,482.3,384.5,484L384.5,484z M484.1,638.3l18.2-25c-1.7-1.8-12-32.9-12-32.9l-17.6,22.9L484.1,638.3z"/>
</svg>
